<?xml version="1.0" encoding="UTF-8"?>
<svg version="1.1" xmlns="http://www.w3.org/2000/svg" width="512" height="512">
<path d="M0 0 C8.81932086 3.84843092 12.26960526 14.44682223 16.0625 22.6875 C31.15509259 54.73716972 51.71358341 83.74115041 71.59790039 112.94042969 C75.42432048 118.56112965 79.24331052 124.1868855 83.0625 129.8125 C83.45307587 130.38771393 83.84365173 130.96292786 84.24606323 131.55557251 C91.55995759 142.32901198 98.82360577 153.13442347 106 164 C106.54849609 164.82902832 107.09699219 165.65805664 107.66210938 166.51220703 C142.84403215 219.79034155 175.73287488 276.97130068 163 343 C157.6253567 368.541793 147.08209527 392.37583513 131 413 C130.30777344 413.91394531 129.61554688 414.82789063 128.90234375 415.76953125 C104.30394225 447.17272419 69.7059627 468.05985821 31 477 C30.32904297 477.16371094 29.65808594 477.32742188 28.96679688 477.49609375 C5.15678799 483.08486402 -23.46701597 482.1903939 -47 476 C-48.24740967 475.68651611 -48.24740967 475.68651611 -49.52001953 475.36669922 C-78.42026999 467.96845677 -103.42544134 453.43218414 -125 433 C-125.48936035 432.54850586 -125.9787207 432.09701172 -126.48291016 431.63183594 C-140.58414076 418.5714 -151.24791904 403.05018864 -160 386 C-160.47493896 385.08686035 -160.47493896 385.08686035 -160.95947266 384.15527344 C-179.96967123 347.16728395 -183.14095811 303.16822485 -170.91015625 263.63671875 C-159.11049477 227.67796602 -138.74143208 195.35448361 -118 164 C-117.4647168 163.18950195 -116.92943359 162.37900391 -116.37792969 161.54394531 C-109.83521384 151.64979651 -103.20401253 141.81733179 -96.53060913 132.01095581 C-88.4321475 120.10824681 -80.39685217 108.16400755 -72.4019165 96.1914978 C-71.19761413 94.38840096 -69.9925254 92.58582902 -68.78656006 90.78384399 C-58.52009098 75.43887376 -48.22815576 60.03726679 -39.0625 44 C-38.58216309 43.16533203 -38.10182617 42.33066406 -37.60693359 41.47070312 C-34.72103257 36.35466102 -32.06979684 31.15647534 -29.56640625 25.84375 C-29.27844681 25.23418457 -28.99048737 24.62461914 -28.69380188 23.99658203 C-27.28324419 20.99913764 -25.89769458 17.99436355 -24.53930664 14.97265625 C-18.95528346 2.88061562 -13.54046417 -1.22449807 0 0 Z M86.55078125 280.4296875 C83.19663341 284.2932045 81.94800667 287.31018774 81.640625 292.32421875 C79.87046328 317.23074584 71.64490219 339.3139239 53.1875 356.8125 C36.50384597 371.0235376 17.08534039 377.61664827 -4.46557617 379.17871094 C-10.71083455 379.701044 -14.14128074 381.22576798 -18.75 385.625 C-21.7052744 389.4152567 -22.4012367 393.25738221 -22 398 C-20.72202265 402.47292071 -18.74792892 405.32164586 -15.3125 408.4375 C-0.7468727 415.30807892 20.22718558 408.73242486 34.53564453 403.90478516 C40.99678636 401.53258468 47.04239471 398.42677497 53 395 C54.00417969 394.4225 55.00835937 393.845 56.04296875 393.25 C83.82609645 376.32149342 102.85097181 349.23719408 110.5390625 317.79541016 C113.05847888 306.62549768 116.19696147 292.24098798 110 282 C106.46705704 278.12664327 102.95806092 276.14777818 97.6875 275.75 C93.04632512 276.06465592 89.91218023 277.11359039 86.55078125 280.4296875 Z " fill="#ff0000" transform="translate(262,16)"/>
</svg>
