<?xml version="1.0" encoding="UTF-8"?>
<svg version="1.1" xmlns="http://www.w3.org/2000/svg" width="512" height="512">
<path d="M0 0 C6.56021925 3.16296285 9.9348813 8.40133284 12.890625 14.8828125 C13.42671387 16.03620117 13.96280273 17.18958984 14.51513672 18.37792969 C14.79677673 18.9877771 15.07841675 19.59762451 15.36859131 20.22595215 C22.58713622 35.77873978 30.93548163 50.4375827 40 65 C40.64694824 66.04075684 41.29389648 67.08151367 41.96044922 68.15380859 C52.52922217 85.06862877 63.73379544 101.54656859 75 118 C80.01010824 125.32646651 85.01116847 132.65902765 90 140 C90.51896851 140.76342712 91.03793701 141.52685425 91.57263184 142.31341553 C95.32299205 147.83189378 99.06729475 153.35443432 102.80670166 158.88034058 C104.0811181 160.76226527 105.35690917 162.64325997 106.63421631 164.52322388 C114.36036204 175.89777775 121.83147203 187.36930345 128.89868164 199.16552734 C130.33024112 201.55008463 131.78550786 203.91978754 133.2421875 206.2890625 C163.05455382 255.19775374 186.88899277 308.72044015 174 367 C173.83371094 367.77375977 173.66742188 368.54751953 173.49609375 369.34472656 C162.9095196 417.16075316 132.89182158 458.48242052 91.94165039 484.86645508 C66.13095002 500.89053864 35.36157561 511.91303744 4.75 512.23828125 C3.98281143 512.24812042 3.21562286 512.25795959 2.42518616 512.26809692 C-41.95316268 512.71953016 -83.99234226 502.55887868 -119 474 C-119.51723633 473.58282715 -120.03447266 473.1656543 -120.56738281 472.73583984 C-153.99805134 445.67244022 -176.92881355 409.20914472 -186 367 C-186.24556641 365.88963379 -186.24556641 365.88963379 -186.49609375 364.75683594 C-190.97521849 343.59204608 -191.64293248 317.98832589 -186 297 C-185.77425293 296.11650879 -185.54850586 295.23301758 -185.31591797 294.32275391 C-181.73350965 280.47123701 -177.06606828 267.37209621 -171.09228516 254.37841797 C-170.07712624 252.16794007 -169.0882911 249.94764964 -168.10546875 247.72265625 C-149.02991744 205.17882476 -120.08994446 166.70272064 -94.00045776 128.28500366 C-54.82438882 73.11441321 -54.82438882 73.11441321 -24.1875 13.125 C-19.7164827 1.87686173 -11.52006538 -1.40679224 0 0 Z M-7 51 C-7.24943359 51.4947583 -7.49886719 51.9895166 -7.75585938 52.49926758 C-25.97820894 88.43279218 -48.19157271 122.19272228 -70.36715698 155.77310181 C-73.57684911 160.63474725 -76.78234459 165.49915886 -79.98828125 170.36328125 C-86.79338446 180.68766931 -86.79338446 180.68766931 -89.57177734 184.89599609 C-102.02276637 203.76821447 -114.06722013 222.87989955 -124.80566406 242.78759766 C-125.62078795 244.297543 -126.44066201 245.80493127 -127.26464844 247.31005859 C-148.42967714 285.99511674 -160.96906203 325.30153288 -149.1875 369.125 C-148.48193195 371.42404195 -147.752013 373.71572843 -147 376 C-146.59136719 377.25039063 -146.18273437 378.50078125 -145.76171875 379.7890625 C-138.54987835 400.82359699 -126.20479956 418.01897945 -111 434 C-110.36835938 434.69609375 -109.73671875 435.3921875 -109.0859375 436.109375 C-86.63489401 460.04396762 -51.22499385 475.47094461 -18.61694336 477.17700195 C26.16163681 477.95497825 65.39898508 466.48400112 98.40991211 434.99707031 C114.23823289 419.44048969 126.87373256 400.05293853 134 379 C134.22526367 378.33532715 134.45052734 377.6706543 134.68261719 376.98583984 C142.84882903 352.31828836 145.51117993 326.17290024 138 301 C137.77989258 300.22366211 137.55978516 299.44732422 137.33300781 298.64746094 C130.50049649 274.87184624 118.96975325 252.74062034 106.46972656 231.50146484 C105.13809802 229.23504191 103.82657194 226.95866395 102.5234375 224.67578125 C90.17720608 203.16719726 76.15201825 182.65589642 62.37841797 162.04931641 C54.8300937 150.75584307 47.31818247 139.44458561 40 128 C39.50967285 127.23494141 39.0193457 126.46988281 38.51416016 125.68164062 C27.95772702 109.18320241 17.92487966 92.39479822 8.125 75.4375 C7.5064917 74.36749756 6.8879834 73.29749512 6.25073242 72.19506836 C2.80476959 66.20855255 -0.54020971 60.18739528 -3.74267578 54.06665039 C-4.83308727 51.86192238 -4.83308727 51.86192238 -7 51 Z " fill="#000000" transform="translate(262,0)"/>
<path d="M0 0 C4.81133393 5.04044507 6.13823455 9.64820055 6 16.5 C5.99057373 17.23661865 5.98114746 17.9732373 5.97143555 18.73217773 C5.06538118 52.8987298 -10.37549625 84.43042652 -34.65576172 108.05834961 C-55.37183703 127.50419697 -83.9508607 140.31614134 -112.375 141.75 C-114.08042969 141.84667969 -114.08042969 141.84667969 -115.8203125 141.9453125 C-122.85711804 142.16941459 -128.64787908 142.18996496 -134.375 137.75 C-138.17070732 133.95429268 -140.32182628 130.03495425 -140.41015625 124.578125 C-139.95548939 117.96882131 -137.78438733 113.92432515 -132.8125 109.4375 C-129.64320977 107.243376 -127.02880295 106.63254738 -123.26953125 106.35546875 C-100.83777806 104.53131385 -81.11832688 99.33512954 -63.375 84.75 C-62.59898437 84.13640625 -61.82296875 83.5228125 -61.0234375 82.890625 C-54.71821922 77.64711015 -50.01333693 71.47910244 -45.375 64.75 C-44.818125 63.94820313 -44.26125 63.14640625 -43.6875 62.3203125 C-33.96048137 47.27383056 -30.28511557 29.51322129 -29.78125 11.8359375 C-29.11950111 6.80919114 -27.19893881 3.59310018 -23.6875 0 C-16.50574987 -5.46591328 -7.2281481 -5.52845981 0 0 Z " fill="#000000" transform="translate(378.375,297.25)"/>
</svg>
